<?xml version="1.0" standalone="no"?>
<!DOCTYPE svg PUBLIC "-//W3C//DTD SVG 20010904//EN"
 "http://www.w3.org/TR/2001/REC-SVG-20010904/DTD/svg10.dtd">
<svg version="1.0" xmlns="http://www.w3.org/2000/svg"
 width="2203.000000pt" height="2203.000000pt" viewBox="0 0 2203.000000 2203.000000"
 preserveAspectRatio="xMidYMid meet">
<metadata>
Created by potrace 1.11, written by Peter Selinger 2001-2013
</metadata>
<g transform="translate(0.000000,2203.000000) scale(0.100000,-0.100000)"
fill="#000000" stroke="none">
<path d="M567 22012 c-14 -15 -16 -993 -16 -10995 0 -10269 1 -10979 17
-10995 16 -16 692 -17 10450 -17 10008 0 10434 1 10447 18 10 15 13 1974 13
10990 0 9527 -2 10975 -14 10995 l-14 22 -10434 0 c-9924 0 -10434 -1 -10449
-18z m20801 -10995 l2 -10907 -10357 0 -10358 0 1 10895 c1 5992 4 10900 7
10907 4 11 2003 13 10353 13 l10349 0 3 -10908z"/>
<path d="M5949 20566 c-2 -2 -63 -7 -135 -10 -71 -4 -141 -8 -155 -10 -13 -3
-53 -7 -89 -10 -66 -7 -205 -24 -249 -31 -13 -2 -45 -7 -70 -11 -25 -4 -55 -8
-66 -10 -25 -5 -72 -13 -106 -18 -42 -7 -267 -56 -344 -76 -555 -142 -1017
-343 -1465 -637 -122 -80 -302 -211 -320 -233 -3 -3 -23 -19 -44 -36 -134 -99
-433 -401 -591 -595 -334 -411 -597 -912 -776 -1479 -17 -52 -32 -102 -34
-110 -2 -8 -13 -49 -24 -90 -17 -62 -46 -185 -67 -285 -4 -20 -42 -238 -49
-285 -2 -14 -7 -50 -10 -80 -3 -30 -8 -66 -10 -80 -5 -33 -17 -162 -30 -335
-7 -83 -7 -573 -1 -660 13 -172 17 -222 21 -245 2 -14 7 -45 10 -70 3 -25 8
-56 10 -70 2 -14 7 -45 11 -70 31 -230 133 -618 229 -870 93 -247 235 -544
360 -755 55 -92 223 -349 252 -385 6 -8 48 -62 92 -120 352 -458 781 -857
1291 -1197 504 -337 1099 -588 1654 -697 71 -14 131 -28 133 -30 2 -2 -18 -7
-44 -11 -82 -12 -352 -82 -493 -129 -336 -111 -641 -262 -940 -464 -101 -68
-286 -207 -310 -232 -3 -3 -39 -34 -80 -69 -74 -63 -296 -284 -375 -371 -207
-231 -467 -593 -618 -859 -189 -336 -281 -522 -414 -841 -36 -85 -73 -177 -83
-205 -11 -27 -26 -68 -34 -90 -174 -469 -349 -1088 -446 -1585 -11 -52 -22
-106 -25 -120 -16 -77 -49 -260 -75 -420 -12 -69 -23 -136 -25 -150 -2 -14 -6
-43 -10 -65 -3 -23 -7 -50 -9 -60 -2 -11 -7 -45 -10 -75 -4 -30 -8 -64 -11
-75 -2 -11 -4 -31 -4 -44 -1 -13 -4 -22 -7 -18 -4 3 -6 819 -6 1813 -1 1752
-1 1807 -19 1825 -24 24 -44 24 -69 -1 -20 -20 -20 -34 -22 -2447 0 -1336 -2
-2439 -3 -2453 -1 -14 -6 -90 -10 -170 -4 -80 -8 -172 -10 -205 -22 -440 -22
-1338 0 -1725 3 -47 7 -128 10 -180 13 -269 19 -305 54 -313 28 -6 60 15 65
42 3 14 5 620 4 1346 0 1172 2 1409 17 1545 2 19 7 76 10 125 4 50 9 99 11
110 2 11 6 57 9 102 4 46 8 92 10 103 2 10 7 50 10 87 4 37 8 79 10 93 2 14 7
50 10 80 3 30 8 66 10 80 2 14 7 50 10 80 3 30 7 66 10 80 2 14 7 45 10 70 3
25 15 99 25 165 10 66 22 140 25 165 10 69 84 477 100 550 8 36 17 77 20 93
12 62 17 88 51 232 19 83 53 220 75 305 23 85 42 162 44 170 15 66 127 425
188 600 92 263 108 306 186 493 623 1498 1551 2441 2768 2812 84 25 165 48
180 51 15 2 35 7 43 10 19 7 194 43 240 50 19 3 58 9 85 14 28 5 75 12 105 16
30 3 66 8 80 9 14 2 63 7 110 10 47 4 101 9 120 11 59 6 442 6 490 0 40 -5 85
-9 224 -21 64 -6 132 -15 291 -40 1339 -213 2420 -810 3102 -1716 198 -263
391 -602 508 -894 15 -38 33 -83 40 -100 25 -58 105 -301 135 -410 57 -206
120 -506 145 -695 3 -25 8 -63 11 -85 3 -22 7 -51 9 -65 31 -224 50 -747 32
-910 -16 -149 -30 -254 -42 -320 -2 -14 -7 -43 -10 -65 -3 -22 -7 -47 -10 -55
-2 -8 -6 -31 -9 -50 -13 -80 -63 -308 -96 -435 -303 -1160 -861 -2084 -1645
-2726 -96 -79 -248 -191 -330 -243 -33 -21 -76 -49 -95 -61 -222 -146 -642
-342 -930 -434 -52 -17 -115 -38 -140 -46 -97 -31 -381 -101 -485 -119 -16 -2
-67 -12 -112 -20 -87 -16 -110 -19 -243 -36 -191 -24 -296 -33 -534 -45 -54
-3 -105 -10 -112 -16 -18 -15 -18 -63 1 -79 14 -12 147 -15 240 -6 22 3 83 7
135 11 52 3 106 8 120 10 14 2 48 6 75 9 28 3 73 9 100 12 77 9 328 49 375 60
14 3 36 8 50 10 207 38 599 157 850 258 338 137 784 393 1030 593 224 182 363
310 523 482 42 46 79 82 80 80 9 -12 1058 -1297 1105 -1354 10 -11 45 -55 80
-97 51 -63 69 -78 91 -78 33 0 51 16 51 48 0 22 -24 55 -132 187 -9 11 -44 54
-78 95 -34 41 -78 95 -98 120 -60 73 -264 323 -302 370 -19 24 -69 84 -110
134 -42 50 -116 141 -165 201 -49 61 -150 184 -224 275 -74 91 -138 170 -143
176 -5 7 -3 17 5 25 26 27 205 266 268 359 327 481 590 1060 764 1680 46 166
73 271 91 360 3 13 12 56 20 95 8 38 17 85 20 104 3 18 8 43 10 55 3 11 6 30
8 41 2 11 6 34 9 50 4 17 9 48 11 70 3 22 8 63 12 90 3 28 7 52 9 55 2 3 6 46
10 95 4 50 9 94 12 98 5 8 4 389 -1 477 -8 130 -17 247 -21 280 -2 19 -7 60
-10 90 -91 876 -372 1659 -819 2280 -174 242 -418 509 -641 701 -532 458
-1175 784 -1965 1000 -52 15 -47 13 -85 22 -16 4 -39 9 -50 11 -11 2 -38 9
-60 15 -36 9 -168 37 -220 47 -148 26 -257 45 -285 49 -58 7 -154 18 -172 19
-41 1 -11 13 90 35 1135 247 2180 812 2932 1587 505 520 869 1118 1083 1779
42 129 100 335 111 395 2 14 11 57 19 95 9 39 18 86 21 105 3 19 8 45 10 56 5
26 12 72 21 139 4 28 9 62 11 77 10 65 24 228 30 336 3 64 7 132 8 149 2 18
-3 42 -11 53 l-15 21 -762 -6 c-418 -3 -1026 -8 -1351 -10 -324 -2 -941 -7
-1370 -10 -429 -4 -905 -7 -1059 -9 -276 -2 -278 -2 -297 -24 -18 -23 -16 -43
4 -70 11 -13 -26 -14 2092 3 253 2 888 6 1410 10 523 4 1017 7 1100 8 l149 2
-1 -55 c-3 -96 -14 -236 -29 -350 -2 -19 -6 -53 -8 -75 -6 -57 -36 -238 -41
-245 -2 -4 -7 -29 -11 -56 -3 -27 -8 -52 -10 -55 -2 -3 -6 -20 -9 -37 -13 -74
-77 -307 -120 -437 -88 -262 -198 -514 -324 -739 -96 -170 -95 -168 -104 -180
-4 -6 -30 -47 -59 -91 -49 -77 -166 -245 -178 -255 -3 -3 -25 -32 -49 -64 -84
-112 -226 -272 -376 -421 -176 -176 -201 -199 -415 -378 -147 -124 -483 -353
-690 -471 -74 -43 -142 -82 -150 -87 -36 -21 -383 -191 -460 -224 -313 -136
-794 -296 -1025 -341 -11 -2 -32 -6 -47 -10 -15 -3 -30 -5 -33 -5 -2 0 -19 -5
-37 -10 -33 -9 -69 -16 -233 -43 -148 -24 -162 -26 -350 -44 -183 -17 -554 -8
-718 17 -34 5 -78 12 -97 15 -53 8 -127 23 -205 41 -38 9 -77 18 -85 20 -45 9
-247 72 -367 114 -472 165 -1000 460 -1413 788 -302 240 -595 530 -829 823
-51 63 -99 123 -108 134 -39 48 -228 334 -295 446 -285 478 -494 1052 -578
1586 -6 38 -13 80 -15 94 -2 14 -7 50 -10 80 -3 30 -8 69 -10 85 -12 98 -20
299 -20 500 0 255 9 441 29 608 3 26 8 66 11 90 3 36 20 151 30 212 86 530
261 1047 500 1485 82 150 92 167 169 284 61 94 256 360 275 376 3 3 33 37 66
75 82 97 302 319 378 382 34 28 72 61 84 72 44 42 282 217 388 287 362 237
829 448 1255 567 93 26 204 55 230 61 14 2 79 16 145 31 205 45 455 83 665
101 36 3 79 7 95 9 171 23 887 23 1025 1 14 -3 54 -7 90 -11 36 -3 81 -8 100
-11 388 -57 658 -126 1045 -268 394 -144 900 -437 1275 -740 206 -166 504
-446 655 -617 28 -31 64 -72 81 -91 75 -84 235 -282 316 -393 48 -66 91 -124
96 -130 8 -10 139 -206 157 -236 179 -294 248 -418 326 -581 31 -65 47 -88 66
-92 36 -10 63 10 63 45 0 39 -141 318 -265 524 -134 223 -393 592 -540 771
-240 290 -580 634 -815 824 -30 25 -57 47 -60 51 -12 15 -266 199 -370 269
-136 91 -315 200 -329 200 -5 0 -11 4 -13 8 -5 12 -291 156 -424 212 -107 46
-153 64 -329 130 -102 38 -315 99 -465 134 -171 39 -201 45 -300 61 -25 4 -54
9 -65 11 -11 2 -44 7 -74 10 -30 3 -62 7 -70 9 -9 2 -47 6 -86 10 -38 4 -86 9
-105 12 -42 6 -765 15 -771 9z"/>
<path d="M15831 20556 c-7 -8 -40 -70 -75 -137 -35 -68 -129 -254 -211 -414
-151 -297 -286 -560 -475 -930 -59 -115 -169 -331 -245 -480 -76 -148 -181
-355 -235 -460 -54 -104 -153 -298 -220 -430 -268 -526 -387 -759 -485 -950
-56 -110 -164 -321 -240 -470 -76 -148 -179 -351 -230 -450 -51 -99 -154 -301
-230 -450 -76 -148 -184 -360 -240 -470 -56 -110 -160 -312 -230 -450 -176
-346 -341 -667 -450 -880 -51 -99 -159 -310 -240 -470 -81 -159 -189 -371
-240 -470 -51 -99 -157 -306 -235 -460 -78 -154 -184 -361 -235 -460 -324
-631 -355 -694 -351 -723 1 -16 64 -132 138 -258 247 -419 493 -836 643 -1089
81 -137 155 -263 165 -280 9 -16 135 -230 280 -475 145 -245 271 -458 280
-475 10 -16 172 -291 360 -610 188 -319 354 -600 368 -625 14 -25 42 -72 62
-105 20 -33 48 -80 62 -105 14 -25 75 -128 135 -230 125 -211 428 -722 671
-1135 91 -154 217 -368 280 -475 173 -293 461 -781 587 -995 61 -104 223 -379
360 -610 136 -231 296 -501 354 -601 l106 -180 -1 -740 c-1 -712 0 -740 18
-760 21 -24 55 -22 76 4 9 12 12 179 12 756 l0 739 89 151 c49 83 98 167 109
186 11 19 136 231 277 470 141 239 301 509 355 600 53 91 231 392 395 670 164
278 324 549 356 603 33 54 59 102 59 107 0 6 5 10 10 10 6 0 10 4 10 9 0 5 48
89 106 187 58 99 116 197 129 219 12 22 42 74 67 115 25 41 97 163 160 270 64
107 263 445 443 750 180 305 336 569 345 585 9 17 46 80 82 140 36 61 75 126
86 145 11 19 158 269 328 555 169 286 322 545 339 575 17 30 141 240 275 465
133 226 253 428 265 450 13 22 71 120 129 219 58 98 106 182 106 187 0 5 5 9
10 9 6 0 10 4 10 9 0 5 34 67 76 137 42 71 84 143 94 159 10 17 47 80 82 141
45 75 65 119 63 137 -2 15 -27 73 -55 129 -53 105 -189 370 -375 733 -56 110
-162 317 -235 460 -73 143 -179 350 -235 460 -56 110 -160 313 -230 450 -70
138 -169 331 -220 430 -51 99 -159 311 -240 470 -81 160 -190 373 -243 475
-52 102 -162 318 -244 480 -83 162 -174 340 -203 395 -80 151 -158 310 -154
311 2 0 -2 8 -9 17 -7 8 -45 78 -84 154 -197 388 -388 763 -453 888 -40 77
-141 275 -225 440 -84 165 -190 372 -235 460 -45 88 -149 291 -230 450 -164
323 -318 624 -465 910 -116 226 -269 525 -490 960 -215 422 -240 468 -253 477
-19 12 -54 9 -66 -6z m214 -501 c86 -170 204 -400 260 -510 164 -319 324 -632
450 -880 65 -126 159 -311 210 -410 51 -99 161 -315 245 -480 84 -165 196
-385 250 -490 54 -104 155 -302 225 -440 70 -137 132 -256 138 -262 5 -7 6
-13 2 -13 -4 0 -2 -6 4 -14 6 -7 43 -76 82 -152 39 -76 134 -263 211 -414 273
-535 570 -1116 698 -1365 54 -104 162 -316 240 -470 78 -154 189 -370 245
-480 56 -110 160 -312 230 -450 70 -137 172 -335 225 -440 54 -104 159 -311
235 -460 76 -148 175 -342 220 -430 45 -88 160 -313 255 -500 95 -187 177
-344 181 -349 20 -22 4 -58 -109 -250 -66 -111 -192 -325 -281 -476 -261 -442
-395 -669 -406 -688 -6 -9 -37 -62 -69 -117 -190 -322 -815 -1381 -1024 -1735
-135 -228 -288 -487 -340 -575 -52 -88 -103 -173 -112 -190 -9 -16 -84 -142
-165 -280 -82 -137 -155 -261 -162 -275 -8 -14 -22 -38 -32 -55 -10 -16 -210
-356 -446 -755 -235 -399 -478 -810 -540 -915 -237 -400 -383 -649 -708 -1200
-185 -313 -348 -590 -362 -614 l-26 -44 -36 59 c-20 32 -160 271 -313 529
-152 259 -380 646 -507 860 -290 491 -369 626 -891 1510 -624 1059 -743 1260
-867 1470 -356 601 -465 788 -465 796 0 5 -4 9 -10 9 -5 0 -10 4 -10 9 0 4
-57 105 -126 222 -233 394 -486 823 -569 964 -45 77 -165 280 -265 450 -201
340 -462 783 -490 830 -10 17 -70 119 -134 227 l-117 198 114 222 c162 315
314 612 467 913 203 397 371 728 493 965 234 459 343 672 437 855 54 105 166
325 250 490 84 165 190 372 235 460 45 88 153 300 240 470 87 171 163 315 169
322 7 7 89 13 241 18 321 10 386 12 580 19 94 4 231 9 305 11 74 3 200 7 280
10 80 3 210 7 290 10 80 3 217 7 305 11 189 7 326 12 377 13 42 1 68 22 68 56
0 34 -32 52 -87 49 -27 -1 -140 -5 -253 -8 -113 -4 -248 -9 -300 -11 -52 -2
-176 -7 -275 -10 -99 -3 -229 -7 -290 -10 -60 -2 -184 -7 -275 -10 -91 -3
-223 -7 -295 -10 -494 -18 -615 -22 -615 -20 0 1 13 26 28 56 16 30 104 203
197 384 92 182 209 411 260 510 51 99 150 293 220 430 70 138 171 336 225 440
54 105 173 339 265 520 92 182 189 371 215 420 26 50 133 259 238 465 105 206
240 472 301 590 61 118 172 337 248 486 114 225 140 269 149 255 6 -9 82 -155
169 -326z"/>
</g>
</svg>
