<svg enable-background="new 0 0 128 128" viewBox="0 0 128 128" xmlns="http://www.w3.org/2000/svg"><circle cx="64" cy="64" fill="#262626" r="64"/><path d="m95.1367 29h-62.2729c-2.1343 0-3.8638 1.729-3.8638 3.8638v62.2729c0 2.1338 1.7295 3.8633 3.8638 3.8633h33.5249v-27.1074h-9.1221v-10.565h9.1221v-7.7905c0-9.0415 5.5224-13.9648 13.5888-13.9648 3.8623 0 7.1827.2876 8.1504.4165v9.4487l-5.5927.0024c-4.3877 0-5.2364 2.0845-5.2364 5.1431v6.7446h10.461l-1.3623 10.565h-9.0987v27.1074h17.8379c2.1338 0 3.8633-1.7295 3.8633-3.8633v-62.2729c0-2.1348-1.7295-3.8638-3.8633-3.8638z" fill="#fff"/></svg>