<svg enable-background="new 0 0 128 128" viewBox="0 0 128 128" xmlns="http://www.w3.org/2000/svg"><circle cx="64" cy="64" fill="#262626" r="64"/><path clip-rule="evenodd" d="m91.5713 58.4829h-6.2402c.4541 1.7651.7236 3.6089.7236 5.5156 0 12.1831-9.875 22.0562-22.0552 22.0562-12.1797 0-22.0542-9.8731-22.0542-22.0562 0-1.9067.2695-3.7505.7246-5.5156h-6.2407v30.3286c0 1.5205 1.2349 2.7549 2.7598 2.7549h49.6215c1.5254 0 2.7608-1.2344 2.7608-2.7549zm0-19.2969c0-1.5219-1.2354-2.7568-2.7608-2.7568h-8.2685c-1.5225 0-2.7568 1.2349-2.7568 2.7568v8.272c0 1.522 1.2343 2.7568 2.7568 2.7568h8.2685c1.5254 0 2.7608-1.2348 2.7608-2.7568zm-27.5718 11.0288c-7.6133 0-13.7847 6.1705-13.7847 13.7837 0 7.6128 6.1714 13.7867 13.7847 13.7867 7.6138 0 13.7857-6.1739 13.7857-13.7867 0-7.6132-6.1719-13.7837-13.7857-13.7837m27.5718 49.625h-55.1421c-4.5664 0-8.269-3.7041-8.269-8.2734v-55.1372c0-4.5669 3.7026-8.269 8.269-8.269h55.1421c4.5674 0 8.2685 3.7021 8.2685 8.269v55.1372c0 4.5693-3.7011 8.2734-8.2685 8.2734" fill="#fff" fill-rule="evenodd"/></svg>