<svg enable-background="new 0 0 128 128" viewBox="0 0 128 128" xmlns="http://www.w3.org/2000/svg"><circle cx="64" cy="64" fill="#262626" r="64"/><g fill="#fff"><path d="m29.0752 51.7471h14.8686v47.7929h-14.8686zm7.4385-23.7578c4.7514 0 8.6084 3.8593 8.6084 8.6137 0 4.7554-3.857 8.6143-8.6084 8.6143-4.7705 0-8.6172-3.8589-8.6172-8.6143 0-4.7544 3.8467-8.6137 8.6172-8.6137"/><path d="m53.2622 51.7471h14.2378v6.5337h.2041c1.9805-3.7574 6.8272-7.7198 14.0537-7.7198 15.0391 0 17.8184 9.896 17.8184 22.7671v26.2119h-14.8516v-23.2421c0-5.542-.0957-12.6719-7.7187-12.6719-7.7286 0-8.9082 6.04-8.9082 12.2754v23.6386h-14.8355z"/></g></svg>