<svg enable-background="new 0 0 128 128" viewBox="0 0 128 128" xmlns="http://www.w3.org/2000/svg"><circle cx="64" cy="64" fill="#262626" r="64"/><path d="m91.7451 51.7451c0 16.1553-8.9746 28.2197-22.2148 28.2197-4.4453 0-8.625-2.4043-10.0601-5.1347 0 0-2.3901 9.4912-2.895 11.3203-1.7798 6.4648-7.0249 12.9394-7.4307 13.4746-.2841.3652-.9145.25-.9795-.2344-.1147-.8252-1.4502-8.9902.125-15.6504.7901-3.3398 5.295-22.4345 5.295-22.4345s-1.3155-2.6304-1.3155-6.5157c0-6.1025 3.5406-10.6572 7.9405-10.6572 3.7451 0 5.5556 2.8096 5.5556 6.1797 0 3.7676-2.3955 9.3975-3.6352 14.6123-1.0352 4.3701 2.1899 7.9307 6.4995 7.9307 7.7988 0 13.0488-10.0205 13.0488-21.8907 0-9.0224-6.0732-15.7797-17.1284-15.7797-12.4854 0-20.2705 9.3149-20.2705 19.7202 0 3.5849 1.06 6.1172 2.7153 8.0722.7603.9004.8701 1.2627.5943 2.2979-.2041.7598-.649 2.5801-.8443 3.3047-.27 1.04-1.1147 1.415-2.06 1.0303-5.75-2.3506-8.4297-8.6504-8.4297-15.73 0-11.6978 9.8647-25.7202 29.4233-25.7202 15.7266 0 26.0664 11.3725 26.0664 23.5849z" fill="#fff"/></svg>