<svg clip-rule="evenodd" fill-rule="evenodd" stroke-linecap="round" stroke-linejoin="round" stroke-miterlimit="1.5" viewBox="0 0 721 644" xmlns="http://www.w3.org/2000/svg"><g fill="none"><path d="m.376.262h720.243v642.936h-720.243z"/><g stroke-width="2.5"><path d="m359.672 177.746s-32.285-75.595-110.479-76.667c-78.195-1.072-122.177 49.533-120.408 117.071 1.768 67.537 64.731 112.195 109.084 111.467 44.353-.727 119.762-35.575 121.803-115.001l-114.514.856" stroke="#000"/><path d="m360.496 329.054 116.482-227.992 116.518 227.992" stroke="#020000"/><path d="m420.01 215.058 56.968-1.993" stroke="#020000"/><path d="m127.426 384.834v177.783s-20.434-231.18 116.517-233c0 0 115.535-2.199 115.729 116.483 0 0-4.33 113.216-115.729 116.517" stroke="#020000"/><path d="m329.854 526.144 29.818 36.473" stroke="#020000"/><path d="m360.496 329.617 116.482 197.431 116.518-197.431" stroke="#020000"/><path d="m476.978 562.617v-35.569" stroke="#020000"/></g><path d="m420.217 215.269c-.004-.007-.006-.011 0-.016" stroke="#000" stroke-width=".25"/></g></svg>